<svg xmlns="http://www.w3.org/2000/svg" fill="none" stroke="currentColor" stroke-width="1.7" stroke-linecap="round" stroke-linejoin="round">
<symbol id="dashboard" viewBox="0 0 24 24"><rect x="3" y="3" width="7" height="7" rx="1.5"/><rect x="14" y="3" width="7" height="7" rx="1.5"/><rect x="3" y="14" width="7" height="7" rx="1.5"/><rect x="14" y="14" width="7" height="7" rx="1.5"/></symbol>
<symbol id="clipboard" viewBox="0 0 24 24"><path d="M9 5H6a2 2 0 0 0-2 2v12a2 2 0 0 0 2 2h12a2 2 0 0 0 2-2V7a2 2 0 0 0-2-2h-3"/><rect x="9" y="3" width="6" height="4" rx="1"/><path d="M8 12h8M8 16h5"/></symbol>
<symbol id="users" viewBox="0 0 24 24"><circle cx="9" cy="8" r="3"/><path d="M3 21v-3a6 6 0 0 1 12 0v3M17 5a3 3 0 0 1 0 6M21 21v-3a6 6 0 0 0-4-5.6"/></symbol>
<symbol id="box" viewBox="0 0 24 24"><path d="m12 3 9 5-9 5-9-5 9-5ZM3 8v9l9 5 9-5V8M12 13v9M7.5 5.5l9 5"/></symbol>
<symbol id="chart" viewBox="0 0 24 24"><path d="M3 3v18h18M7 16v-4M12 16V8M17 16v-7"/></symbol>
<symbol id="wallet" viewBox="0 0 24 24"><path d="M20 8V5H5a2 2 0 0 0 0 4h16v11H5a2 2 0 0 1-2-2V7"/><path d="M21 12h-5v5h5"/><path d="M18 14.5h.01"/></symbol>
<symbol id="wrench" viewBox="0 0 24 24"><path d="M14 6a5 5 0 0 0-6 6L3 17a2.8 2.8 0 0 0 4 4l5-5a5 5 0 0 0 6-6l-3 3-4-4 3-3Z"/></symbol>
<symbol id="settings" viewBox="0 0 24 24"><path d="m9.2 3-.6 2.5L6.4 7 4 6.3 2 9.7l1.8 1.8v2.9L2 16.3 4 19.7l2.4-.7 2.2 1.5.6 2.5h4.2l.6-2.5 2.2-1.5 2.4.7 2-3.4-1.8-1.9v-2.9L21 9.7l-2-3.4-2.4.7-2.2-1.5-.6-2.5Z" transform="translate(0 -1) scale(1 .96)"/><circle cx="11.5" cy="11.5" r="3"/></symbol>
<symbol id="plus" viewBox="0 0 24 24"><path d="M12 5v14M5 12h14"/></symbol>
<symbol id="bolt" viewBox="0 0 24 24"><path d="M13 2 4 14h7l-1 8 10-13h-7l1-7Z"/></symbol>
<symbol id="logout" viewBox="0 0 24 24"><path d="M9 4H4v16h5M10 12h11m-4-4 4 4-4 4"/></symbol>
<symbol id="search" viewBox="0 0 24 24"><circle cx="10.5" cy="10.5" r="6.5"/><path d="m16 16 5 5"/></symbol>
<symbol id="calendar" viewBox="0 0 24 24"><rect x="3" y="5" width="18" height="16" rx="2"/><path d="M7 3v4M17 3v4M3 10h18M7 14h2M13 14h2M7 17h2"/></symbol>
<symbol id="arrow-right" viewBox="0 0 24 24"><path d="M4 12h16m-6-6 6 6-6 6"/></symbol>
<symbol id="arrow-left" viewBox="0 0 24 24"><path d="M20 12H4m6-6-6 6 6 6"/></symbol>
<symbol id="arrow-up-right" viewBox="0 0 24 24"><path d="M6 18 18 6M6 6h12v12"/></symbol>
<symbol id="chevron" viewBox="0 0 24 24"><path d="m9 5 7 7-7 7"/></symbol>
<symbol id="moon" viewBox="0 0 24 24"><path d="M20 15.5A8.5 8.5 0 0 1 8.5 4 8.5 8.5 0 1 0 20 15.5Z"/></symbol>
<symbol id="menu" viewBox="0 0 24 24"><path d="M4 6h16M4 12h16M4 18h16"/></symbol>
<symbol id="check" viewBox="0 0 24 24"><path d="m5 12 4 4L19 6"/></symbol>
<symbol id="alert" viewBox="0 0 24 24"><path d="m12 3 10 18H2L12 3ZM12 9v5m0 3h.01"/></symbol>
<symbol id="eye" viewBox="0 0 24 24"><path d="M2 12s3-7 10-7 10 7 10 7-3 7-10 7S2 12 2 12Z"/><circle cx="12" cy="12" r="3"/></symbol>
<symbol id="lock" viewBox="0 0 24 24"><rect x="5" y="10" width="14" height="11" rx="2"/><path d="M8 10V7a4 4 0 0 1 8 0v3M12 14v3"/></symbol>
<symbol id="trash" viewBox="0 0 24 24"><path d="M3 6h18M9 6V3h6v3M5 6l1 15h12l1-15M10 10v7M14 10v7"/></symbol>
<symbol id="edit" viewBox="0 0 24 24"><path d="m15 4 5 5-11 11-6 1 1-6L15 4Zm-1 1 5 5"/></symbol>
<symbol id="printer" viewBox="0 0 24 24"><path d="M6 9V3h12v6M6 17H3V9h18v8h-3M6 14h12v7H6v-7ZM17 11h1"/></symbol>
<symbol id="download" viewBox="0 0 24 24"><path d="M12 3v12m-5-5 5 5 5-5M4 16v5h16v-5"/></symbol>
<symbol id="phone" viewBox="0 0 24 24"><path d="m7 3 3 5-3 3c1 3 3 5 6 6l3-3 5 3c0 3-2 4-5 4C8 20 4 16 3 8c0-3 1-5 4-5Z"/></symbol>
<symbol id="car" viewBox="0 0 24 24"><path d="m4 10 2-6h12l2 6M3 10h18v9H3v-9ZM5 19v2M19 19v2M6 14h2M16 14h2"/></symbol>
</svg>
